<svg xmlns="http://www.w3.org/2000/svg" width="36.141" height="36.141" viewBox="0 0 36.141 36.141">
  <g id="Group_20211" data-name="Group 20211" transform="translate(-8.271 -8.271)">
    <path id="Path_35416" data-name="Path 35416" d="M-2478.19,4170.2l4.879-4.878-4.879-4.879v-6.9h-6.9l-4.878-4.879-4.879,4.879h-6.9v6.9l-4.878,4.879,4.878,4.878v6.9h6.9l4.879,4.879,4.878-4.879h6.9Z" transform="translate(2516.309 -4138.976)" fill="none" stroke="#faa62b" stroke-miterlimit="10" stroke-width="2"/>
    <g id="Group_15142" data-name="Group 15142" transform="translate(19.129 18.574)">
      <g id="Group_15129" data-name="Group 15129" transform="translate(0 0)">
        <path id="Path_385" data-name="Path 385" d="M340.036,208.63a7.548,7.548,0,0,1,1.572.166.089.089,0,0,1,.069.1.088.088,0,0,1-.084.081,6.568,6.568,0,0,0,.171,13.125,6.347,6.347,0,0,0,5.323-2.924.085.085,0,0,1,.112-.03.09.09,0,0,1,.042.11,7.843,7.843,0,0,1-2.77,3.7,7.5,7.5,0,0,1-4.434,1.445,7.886,7.886,0,0,1,0-15.766" transform="translate(-332.355 -208.63)" fill="#faa62b"/>
      </g>
    </g>
  </g>
</svg>
