<svg xmlns="http://www.w3.org/2000/svg" width="14.232" height="19.921" viewBox="0 0 14.232 19.921">
  <g id="Group_20211" data-name="Group 20211" transform="translate(-10.36 -8.04)">
    <path id="Path" d="M11.7,9.232a3.161,3.161,0,0,0,1.553-3.26c-.266-2.017-2.655-2.779-4.54-2.939V0H6.85V3.006H5.6V0H3.744V3.006H0V4.943H1.394c.624,0,.929.187.929.695v8.324c0,.695-.345.909-.717.909H.186v1.977H3.8v3.073H5.669V16.848H6.917v3.073H8.736V16.848h.4c3.823,0,5.1-1.884,5.1-4.449A3.322,3.322,0,0,0,11.7,9.232Z" transform="translate(10.36 8.04)" fill="#24262e"/>
    <path id="Path-2" data-name="Path" d="M0,0H1.328c.929,0,2.761.159,2.761,1.673A1.872,1.872,0,0,1,2.456,3.651H0S0,0,0,0Z" transform="translate(15.966 13.122)" fill="#df8e3a"/>
    <path id="Path-3" data-name="Path" d="M2.058,4V3.983H0V0H2.39c.558,0,2.655.186,2.655,1.673S4.049,4,2.058,4Z" transform="translate(15.968 18.708)" fill="#df8e3a"/>
  </g>
</svg>
