<svg xmlns="http://www.w3.org/2000/svg" width="24.778" height="22.714" viewBox="0 0 24.778 22.714">
  <g id="Layer_1-2" data-name="Layer 1-2" transform="translate(0 0)">
    <path id="Path_33923" data-name="Path 33923" d="M-370.446-68.682a6.273,6.273,0,0,1-.1-1.891,3.257,3.257,0,0,1,.773-1.988,6.545,6.545,0,0,1,1.215-1.082c1.083-.738,2.2-1.433,3.3-2.137a.3.3,0,0,1,.232.014c.352.217.7.45,1.041.675.892.579,1.8,1.158,2.677,1.764a3.486,3.486,0,0,1,.961,1,11.149,11.149,0,0,1,1.814-.145,9.8,9.8,0,0,1,2.027.211,6.885,6.885,0,0,0-1.047-2.228,9.972,9.972,0,0,0-2.867-2.5c-.843-.534-1.7-1.054-2.53-1.617a5.208,5.208,0,0,1-1.942-2.214c-.049-.12-.093-.239-.145-.374a2.04,2.04,0,0,0,1.328-.744,1.715,1.715,0,0,0,.358-1.412c-.308,1.06-.921,1.525-1.738,1.335a1.428,1.428,0,0,1-1.1-1.581,1.419,1.419,0,0,1,.7-1.027,1.5,1.5,0,0,1,1.251-.106,1.826,1.826,0,0,0-1.94-.035,1.774,1.774,0,0,0-.941,1.855,1.9,1.9,0,0,0,1.82,1.722c-.02.078-.042.145-.064.211a4.777,4.777,0,0,1-1.158,1.687,11.688,11.688,0,0,1-1.946,1.426,22.82,22.82,0,0,0-3.122,2.11,6.753,6.753,0,0,0-2.123,3.2,9.084,9.084,0,0,0-.19,4.589,3.353,3.353,0,0,0,.534-.029,12.275,12.275,0,0,0,2.916-.688" transform="translate(377.628 85.029)" fill="#fff"/>
    <path id="Path_33924" data-name="Path 33924" d="M-375.292,5.319a8.6,8.6,0,0,0-1.926-.7,9.388,9.388,0,0,0-2.129-.246,19.382,19.382,0,0,0-7.1,1.84c-1.574.662-3.12,1.384-4.729,1.94-2.256.78-4.623,1.209-6.806-.035-.161-.085-.319-.178-.463-.268a17.11,17.11,0,0,0,2.108,2.039c2.564,1.8,5.712,1.658,8.552.673,1.756-.6,3.423-1.434,5.108-2.205a28.216,28.216,0,0,1,4.589-1.765,10.764,10.764,0,0,1,2.706-.379,7.374,7.374,0,0,1,1.237.106c.161.022.316.049.478.071a12.7,12.7,0,0,0-1.63-1.069" transform="translate(398.44 8.574)" fill="#fff"/>
    <path id="Path_33925" data-name="Path 33925" d="M-338.584,25.935a27.077,27.077,0,0,0-3.844,1.468c-1.448.653-2.9,1.335-4.357,1.953a14.578,14.578,0,0,1-5.34,1.279.485.485,0,0,0-.145.035v.064a8.783,8.783,0,0,0,8.32,1.258,8.762,8.762,0,0,0,5.685-6.057.614.614,0,0,1-.049-.064l-.274.064" transform="translate(358.955 -9.813)" fill="#fff"/>
  </g>
</svg>
