<svg xmlns="http://www.w3.org/2000/svg" width="34" height="34" viewBox="0 0 34 34">
  <g id="Group_20220" data-name="Group 20220" transform="translate(-42 -134)">
    <rect id="Rectangle_7328" data-name="Rectangle 7328" width="34" height="34" rx="17" transform="translate(42 134)" fill="#46464d"/>
    <g id="Group_15048" data-name="Group 15048" transform="translate(47 139)">
      <path id="Path_35319" data-name="Path 35319" d="M0,0H24V24H0Z" fill="none"/>
      <path id="Path_35320" data-name="Path 35320" d="M9,19c-4.3,1.4-4.3-2.5-6-3m12,5V17.5c0-1,.1-1.4-.5-2,2.8-.3,5.5-1.4,5.5-6a4.6,4.6,0,0,0-1.3-3.2,4.2,4.2,0,0,0-.1-3.2s-1.1-.3-3.5,1.3a12.3,12.3,0,0,0-6.2,0C6.5,2.8,5.4,3.1,5.4,3.1a4.2,4.2,0,0,0-.1,3.2A4.6,4.6,0,0,0,4,9.5c0,4.6,2.7,5.7,5.5,6a2.083,2.083,0,0,0-.5,2V21" fill="none" stroke="#fff" stroke-linecap="round" stroke-linejoin="round" stroke-width="1.5"/>
    </g>
  </g>
</svg>
