<svg id="Group_15094" data-name="Group 15094" xmlns="http://www.w3.org/2000/svg" width="27.905" height="27.909" viewBox="0 0 27.905 27.909">
  <path id="Path_35395" data-name="Path 35395" d="M810.61,320.18l1.812-1.81c.723-.723,1.44-1.452,2.172-2.165a.836.836,0,0,0,.281-.664c-.014-1.571-.007-3.143-.007-4.715v-.366h.368c1.59,0,3.18,0,4.771,0a.69.69,0,0,0,.546-.221c1.251-1.265,2.513-2.52,3.77-3.78a2.954,2.954,0,0,0,.207-.264c.114.107.19.173.261.245q1.908,1.907,3.812,3.819a.63.63,0,0,0,.5.2c1.6-.007,3.2,0,4.8,0h.367v.367c0,1.581,0,3.162,0,4.743a.751.751,0,0,0,.239.6c1.266,1.25,2.52,2.513,3.78,3.771.066.066.145.121.235.2-.1.1-.165.18-.236.252q-1.9,1.9-3.8,3.792a.691.691,0,0,0-.22.546c.009,1.591,0,3.181,0,4.771v.367H833.9c-1.59,0-3.18,0-4.771,0a.69.69,0,0,0-.546.221c-1.252,1.265-2.514,2.52-3.771,3.779-.073.073-.135.158-.216.254-.1-.1-.18-.165-.252-.237-1.246-1.244-2.494-2.486-3.732-3.738a.842.842,0,0,0-.663-.281c-1.571.014-3.142.007-4.714.007h-.366v-.368c0-1.591,0-3.181,0-4.771a.69.69,0,0,0-.221-.546c-1.265-1.252-2.52-2.514-3.779-3.771C810.8,320.331,810.716,320.27,810.61,320.18Zm15.1,2.167c.085.211.146.39.227.559a1.7,1.7,0,0,0,1.613,1.087,7.506,7.506,0,0,0,2.378-.315,7,7,0,0,0,2.881-1.747.633.633,0,0,0-.386-1.134,4.537,4.537,0,0,1-.886-.271c-.409-.171-.8-.392-1.2-.568a2.4,2.4,0,0,0-1.494-.193,1.852,1.852,0,0,0-1.313.853.56.56,0,0,0,.477.873.9.9,0,0,0,.515-.241.97.97,0,0,1,.987-.282c.566.2,1.108.461,1.714.72a5.91,5.91,0,0,1-3.03,1.078c-1.1.073-1.329-.135-1.468-1.239a19.915,19.915,0,0,1,.146-4.922,1.2,1.2,0,0,0,0-.393.6.6,0,0,0-.634-.459.625.625,0,0,0-.578.631c-.1,1.092-.242,2.185-.245,3.279A2.79,2.79,0,0,1,824.242,322a6.046,6.046,0,0,1-2.667,1.186.613.613,0,1,0,.205,1.2,6.576,6.576,0,0,0,3.209-1.4C825.23,322.786,825.454,322.571,825.708,322.346Zm-4.34-1q-.374-3.011-.751-6.021a.621.621,0,0,0-.7-.612.634.634,0,0,0-.51.784c.214,1.707.434,3.413.645,5.12a3.085,3.085,0,0,1,.051.928,1.985,1.985,0,0,1-2.212,1.481c-.247-.043-.447-.153-.485-.406a4.259,4.259,0,0,1-.058-.971.649.649,0,0,0-.446-.776.549.549,0,0,0-.718.46,3.581,3.581,0,0,0-.069,1.119,1.842,1.842,0,0,0,2.069,1.791,3.48,3.48,0,0,0,2.8-1.552A2.175,2.175,0,0,0,821.369,321.348Zm3.542-2.046a.5.5,0,0,0-.006-.085,4.22,4.22,0,0,0-2.15-2.817.525.525,0,0,0-.65.128.542.542,0,0,0-.108.677,1.1,1.1,0,0,0,.359.346,3.2,3.2,0,0,1,1.278,1.616c.048.133.077.274.135.4a.582.582,0,0,0,.678.333A.6.6,0,0,0,824.911,319.3Z" transform="translate(-810.61 -306.201)" fill="#fff"/>
</svg>
