<svg xmlns="http://www.w3.org/2000/svg" width="31.566" height="25.455" viewBox="0 0 31.566 25.455">
  <g id="Group_14187" data-name="Group 14187" transform="translate(-3823.75 -370.272)">
    <path id="Path_33700" data-name="Path 33700" d="M3567.5,373.667a11.554,11.554,0,0,1-4.17-.825" transform="translate(272 21)" fill="none" stroke="#fff" stroke-linecap="round" stroke-linejoin="round" stroke-width="1.5"/>
    <path id="Path_33702" data-name="Path 33702" d="M3579.3,356.868a24.932,24.932,0,0,1,3,4.354,1.617,1.617,0,0,1,0,1.558" transform="translate(272 21)" fill="none" stroke="#fff" stroke-linecap="round" stroke-linejoin="round" stroke-width="1.5"/>
    <g id="Group_14185" data-name="Group 14185">
      <path id="Path_33701" data-name="Path 33701" d="M3582.3,362.78c-3.15,5.832-8.98,10.887-14.8,10.887" transform="translate(272 21)" fill="none" stroke="#fff" stroke-linecap="round" stroke-linejoin="round" stroke-width="1.5"/>
      <path id="Path_33703" data-name="Path 33703" d="M3555.83,373.667l23.34-23.334" transform="translate(272 21)" fill="none" stroke="#fff" stroke-linecap="round" stroke-linejoin="round" stroke-width="1.5"/>
      <path id="Path_33704" data-name="Path 33704" d="M3563.79,365.712a5.231,5.231,0,0,1-1.54-3.713,5.325,5.325,0,0,1,.4-2.009,5.151,5.151,0,0,1,1.14-1.7,5.244,5.244,0,0,1,7.42,0" transform="translate(272 21)" fill="none" stroke="#fff" stroke-linecap="round" stroke-linejoin="round" stroke-width="1.5"/>
      <path id="Path_33705" data-name="Path 33705" d="M3575.91,353.593a14.056,14.056,0,0,0-8.41-3.26c-5.82,0-12.5,5-14.8,10.889a1.617,1.617,0,0,0,0,1.558,24.548,24.548,0,0,0,6.39,7.628" transform="translate(272 21)" fill="none" stroke="#fff" stroke-linecap="round" stroke-linejoin="round" stroke-width="1.5"/>
    </g>
  </g>
</svg>
