<svg xmlns="http://www.w3.org/2000/svg" width="40" height="40" viewBox="0 0 40 40">
  <g id="Group_20231" data-name="Group 20231" transform="translate(-36 -597)">
    <g id="Icon" transform="translate(31.021 595.145)">
      <g id="Group_14255" data-name="Group 14255" transform="translate(4.979 1.855)">
        <path id="Path" d="M20.015,0A20,20,0,1,0,40,20,20,20,0,0,0,20.015,0Z" transform="translate(0 0)" fill="#83909a" opacity="0.114"/>
      </g>
    </g>
    <path id="Path_35390" data-name="Path 35390" d="M-300.459,138.954v4.635a.993.993,0,0,1-.512.449c-.864.424-1.722.862-2.586,1.287a.241.241,0,0,0-.164.256q.014.578,0,1.157a.241.241,0,0,0,.164.256c.864.425,1.722.863,2.586,1.287a1,1,0,0,1,.513.45V153.4a.94.94,0,0,1-.514.449c-.215.095-.421.208-.631.314l-2.513,1.265h-.29c-.007-.009-.012-.022-.021-.027-1.067-.532-2.132-1.069-3.2-1.59a.684.684,0,0,1-.435-.714c.015-.317,0-.635,0-.951h-3.3c0,.356,0,.7,0,1.043a.588.588,0,0,1-.354.579c-.265.129-.528.263-.792.4l-2.512,1.265h-.29c-.007-.009-.012-.023-.021-.027-1.053-.519-2.1-1.04-3.16-1.552A.988.988,0,0,1-319,153.4v-4.671a.991.991,0,0,1,.513-.449c.878-.426,1.75-.865,2.627-1.292a.24.24,0,0,0,.158-.26q-.015-.57,0-1.14a.24.24,0,0,0-.158-.26c-.878-.427-1.749-.866-2.627-1.292a.988.988,0,0,1-.514-.449v-4.635a.741.741,0,0,1,.438-.447c.289-.133.572-.28.857-.422l2.4-1.195h.29c.007.009.012.023.021.027q1.626.809,3.253,1.616a.633.633,0,0,1,.386.634c-.008.567,0,1.134,0,1.7v.355h3.3c0-.706,0-1.4,0-2.092a.591.591,0,0,1,.354-.58c.265-.13.528-.263.792-.4l2.513-1.265h.29c.007.009.012.023.021.027,1.065.531,2.13,1.064,3.2,1.589A.764.764,0,0,1-300.459,138.954Zm-10.9,3.375c0,.325-.013.633,0,.939a.7.7,0,0,1-.451.741c-.9.431-1.779.886-2.67,1.326a.217.217,0,0,0-.145.232q.014.588,0,1.176a.23.23,0,0,0,.152.246c.9.443,1.787.9,2.686,1.336a.674.674,0,0,1,.428.682c-.012.615,0,1.231,0,1.846v.187h3.3v-.2c0-.609.009-1.219,0-1.828a.675.675,0,0,1,.427-.683c.9-.441,1.8-.9,2.7-1.344a.206.206,0,0,0,.137-.218q-.012-.6,0-1.194a.217.217,0,0,0-.143-.233c-.9-.445-1.8-.9-2.7-1.344a.666.666,0,0,1-.42-.687c.013-.323,0-.647,0-.977Zm-4.359,1.864a.7.7,0,0,0,.012-.08c0-.989,0-1.978,0-2.966,0-.109-.055-.144-.134-.182q-.867-.426-1.733-.855l-.332-.163a.723.723,0,0,0-.013.087c0,.989,0,1.978,0,2.966a.222.222,0,0,0,.1.156c.194.108.4.2.6.3Zm-2.2,5.56c0,1.047,0,2.06.006,3.072,0,.054.072.13.129.159.639.323,1.283.639,1.925.956.042.021.086.035.134.054a.335.335,0,0,0,.014-.061c0-.995,0-1.99,0-2.984a.219.219,0,0,0-.107-.154c-.352-.184-.71-.357-1.066-.533Zm5.46-9.79a.555.555,0,0,0-.079.023c-.663.331-1.327.659-1.986,1a.237.237,0,0,0-.1.179c-.006.953,0,1.906,0,2.859,0,.046,0,.092.007.151a.547.547,0,0,0,.079-.023c.663-.331,1.327-.659,1.986-1a.237.237,0,0,0,.1-.179c.006-.953,0-1.906,0-2.859C-312.446,140.068-312.45,140.022-312.453,139.963Zm5.486-.006c0,.045-.009.073-.009.1,0,.977,0,1.954,0,2.932,0,.109.053.144.132.184q.947.471,1.892.945c.041.021.085.036.142.06,0-.045.009-.073.009-.1,0-.977,0-1.955,0-2.932,0-.109-.053-.144-.132-.184q-.947-.471-1.892-.945C-306.866,140-306.91,139.982-306.967,139.958Zm3.249,4.212a.349.349,0,0,0,.073-.013c.668-.333,1.338-.664,2-1.006a.26.26,0,0,0,.093-.2c.006-.941,0-1.882,0-2.823,0-.051,0-.1-.008-.155-.026,0-.039,0-.049,0-.68.338-1.359.675-2.036,1.018a.184.184,0,0,0-.077.139C-303.719,142.138-303.718,143.145-303.718,144.17Zm-10.9,9.826c.052-.02.075-.026.1-.036.657-.328,1.313-.66,1.974-.982.1-.048.1-.112.1-.2q0-1.43,0-2.859c0-.044-.008-.089-.012-.132a.185.185,0,0,0-.05,0c-.674.336-1.349.67-2.019,1.013a.222.222,0,0,0-.087.168c-.007.47,0,.941,0,1.412Zm7.653-4.221a.7.7,0,0,0-.011.082c0,.983,0,1.967,0,2.95a.236.236,0,0,0,.113.169c.632.324,1.269.641,1.9.958.041.021.085.035.138.056a.7.7,0,0,0,.011-.082c0-.983,0-1.967,0-2.95a.236.236,0,0,0-.113-.169c-.632-.324-1.269-.641-1.9-.958C-306.868,149.81-306.912,149.8-306.965,149.775Zm5.42-.007c-.072.031-.121.05-.167.073-.62.309-1.238.622-1.861.925a.232.232,0,0,0-.147.248c0,.929,0,1.858,0,2.787v.2c.072-.031.121-.05.167-.073.62-.309,1.238-.622,1.861-.925a.232.232,0,0,0,.147-.248c0-.929,0-1.858,0-2.787Zm-11.589-10.7c-.042-.028-.059-.042-.078-.052-.619-.311-1.238-.623-1.861-.927a.281.281,0,0,0-.213.015c-.521.251-1.038.51-1.557.767l-.372.185c.048.031.071.049.1.061.621.308,1.241.617,1.865.917a.28.28,0,0,0,.213-.013c.526-.256,1.047-.519,1.57-.781C-313.367,139.188-313.262,139.133-313.135,139.068Zm-4.094,9.809c.69.341,1.337.663,1.988.977a.26.26,0,0,0,.2-.017c.6-.292,1.187-.59,1.779-.888a1.44,1.44,0,0,0,.128-.084c-.665-.332-1.3-.655-1.949-.969a.263.263,0,0,0-.2.019c-.365.173-.725.354-1.087.534Zm10.924-9.814c.687.343,1.331.667,1.979.983a.241.241,0,0,0,.18-.022c.6-.295,1.2-.595,1.793-.894a.949.949,0,0,0,.1-.07.3.3,0,0,0-.039-.032q-.686-.344-1.372-.687c-.2-.1-.4-.268-.6-.268s-.4.169-.6.268C-305.33,138.574-305.8,138.808-306.305,139.063Zm.016,9.807c.048.032.07.05.095.062.613.307,1.226.616,1.843.916a.278.278,0,0,0,.212-.014c.519-.253,1.035-.513,1.551-.772l.355-.179c-.048-.032-.07-.05-.095-.062-.613-.307-1.226-.616-1.843-.916a.279.279,0,0,0-.212.014c-.519.253-1.035.513-1.551.772Z" transform="translate(365.729 470.839)" fill="#83909a"/>
    <path id="Path_35390_-_Outline" data-name="Path 35390 - Outline" d="M-315.424,136.39h.66l.1.133.556.277c.848.422,1.725.859,2.588,1.285a1.128,1.128,0,0,1,.665,1.09c-.006.4,0,.8,0,1.192q0,.178,0,.357h2.3v-.1c0-.489,0-.994,0-1.488a1.09,1.09,0,0,1,.633-1.031c.22-.108.444-.221.661-.33l.127-.064,1.727-.869.892-.449h.661l.1.133.551.275c.831.414,1.691.843,2.537,1.26a1.256,1.256,0,0,1,.694.742l.024.075V143.7l-.048.1a1.473,1.473,0,0,1-.744.684c-.444.218-.9.444-1.332.662-.372.186-.755.378-1.136.566.005.3.005.594,0,.889.377.186.756.376,1.123.56.44.22.9.448,1.344.668a1.483,1.483,0,0,1,.743.681l.05.1v4.9l-.048.1a1.435,1.435,0,0,1-.763.693c-.139.062-.277.133-.423.208l-.186.1L-304,155.931h-.658l-.1-.132-.719-.359c-.778-.389-1.582-.791-2.377-1.177a1.184,1.184,0,0,1-.716-1.187c.007-.141.008-.282.007-.428h-2.3c0,.182,0,.359,0,.538a1.086,1.086,0,0,1-.635,1.033c-.212.1-.427.212-.636.317l-.151.076-1.76.886-.858.432h-.661l-.1-.132-.595-.293c-.8-.4-1.635-.807-2.454-1.2a1.467,1.467,0,0,1-.746-.683l-.049-.1v-4.9l.049-.1a1.469,1.469,0,0,1,.746-.683c.459-.222.924-.453,1.374-.676.369-.182.748-.37,1.126-.555-.006-.294-.006-.59,0-.884-.382-.187-.766-.376-1.137-.56-.446-.221-.908-.449-1.363-.67a1.467,1.467,0,0,1-.747-.684l-.049-.1v-4.827l.024-.075a1.222,1.222,0,0,1,.7-.747c.2-.093.4-.191.6-.3l.239-.12,1.805-.9Zm.256,1h-.021l-.488.243-1.806.9-.234.118c-.206.1-.419.211-.636.311a.394.394,0,0,0-.148.1v4.382a.858.858,0,0,0,.232.146c.459.222.922.452,1.37.674.412.2.838.415,1.258.619a.736.736,0,0,1,.439.723c-.01.371-.01.746,0,1.114a.736.736,0,0,1-.439.723c-.416.2-.838.411-1.246.613-.452.224-.919.455-1.382.679a.851.851,0,0,0-.232.146v4.378a.856.856,0,0,0,.231.145c.823.4,1.655.81,2.461,1.207l.652.322h.02l.646-.325,1.76-.886.15-.076c.211-.106.43-.217.648-.323.061-.03.074-.039.073-.125,0-.242,0-.478,0-.728q0-.158,0-.319v-.5h4.3v.5c0,.095,0,.19,0,.285,0,.224.005.455-.006.69-.006.129.008.17.154.241.8.388,1.606.792,2.387,1.182l.771.385h.02l2.407-1.212.177-.091c.153-.079.31-.16.477-.234a.659.659,0,0,0,.216-.135v-4.381a.856.856,0,0,0-.233-.148c-.452-.222-.909-.45-1.351-.672-.4-.2-.823-.412-1.236-.615a.737.737,0,0,1-.443-.717c.009-.376.009-.757,0-1.132a.737.737,0,0,1,.443-.717c.416-.2.839-.416,1.248-.621.438-.219.891-.446,1.339-.666a.864.864,0,0,0,.233-.147v-4.381a.482.482,0,0,0-.16-.107c-.849-.418-1.71-.847-2.542-1.262l-.607-.3h-.02l-.68.342-1.727.869-.126.064c-.219.11-.445.224-.67.335-.06.029-.074.04-.074.129,0,.5,0,1,0,1.493v1.1h-4.3v-.855q0-.249,0-.5c0-.4,0-.805,0-1.21,0-.108-.012-.131-.107-.178-.866-.427-1.743-.864-2.592-1.287Zm10.906.183a1.32,1.32,0,0,1,.683.241c.051.03.1.059.14.079q.554.275,1.106.554l.267.134a.571.571,0,0,1,.13.09l0,0,.507.421-.542.375-.022.016a.919.919,0,0,1-.141.09l-.107.054c-.553.277-1.124.564-1.69.842a.811.811,0,0,1-.348.083.614.614,0,0,1-.272-.061c-.523-.255-1.039-.513-1.586-.786l-1.292-.645,1.341-.672,1-.5c.04-.02.089-.049.14-.08a1.319,1.319,0,0,1,.683-.241Zm.927,1.49-.55-.275c-.075-.037-.145-.079-.207-.116a1.763,1.763,0,0,0-.17-.094,1.761,1.761,0,0,0-.17.094c-.062.037-.133.079-.208.117l-.548.274c.314.157.621.309.929.46C-303.951,139.371-303.641,139.217-303.335,139.063Zm-11.816-1.488a.67.67,0,0,1,.3.065c.511.249,1.026.507,1.524.758l.342.172a.775.775,0,0,1,.1.063l.029.02.708.473-.878.449-.221.113-.307.154c-.414.208-.843.423-1.268.63a.817.817,0,0,1-.351.079.68.68,0,0,1-.3-.065c-.517-.249-1.039-.507-1.543-.757l-.327-.162a.906.906,0,0,1-.109-.065l-.035-.023-.74-.476.9-.448.26-.129.345-.171c.4-.2.809-.4,1.217-.6A.829.829,0,0,1-315.151,137.575Zm.917,1.489c-.309-.155-.621-.31-.931-.462-.313.152-.63.308-.939.462.312.154.628.309.941.461C-314.853,139.373-314.541,139.217-314.234,139.063Zm-4.058.134.727.356.218.107.458.226,1.274.628a.666.666,0,0,1,.413.634c0,.728,0,1.47,0,2.187q0,.389,0,.777a.68.68,0,0,1-.014.131c0,.007,0,.016,0,.027l-.107.67-2.1-1.038-.16-.078c-.15-.073-.3-.148-.458-.233a.718.718,0,0,1-.361-.59c-.005-.866,0-1.746,0-2.6v-.374a.731.731,0,0,1,.014-.137c0-.007,0-.015,0-.025Zm2.089,2.143-1.13-.557-.081-.04c0,.678,0,1.371,0,2.056.083.042.168.084.257.127l.167.081.781.386v-.058C-316.205,142.682-316.206,142.008-316.2,141.341Zm8.8-2.108.627.264.047.019c.039.016.079.032.124.054l.687.343,1.2.6a.668.668,0,0,1,.41.634c0,.722,0,1.458,0,2.169q0,.38,0,.76a.95.95,0,0,1-.008.117c0,.009,0,.02,0,.032l-.065.678-.627-.265-.047-.019c-.039-.016-.079-.032-.124-.054l-.675-.338-1.216-.607a.667.667,0,0,1-.41-.634c0-.72,0-1.453,0-2.162q0-.384,0-.768a.956.956,0,0,1,.008-.117c0-.009,0-.02,0-.032Zm2.1,2.105-1.06-.529-.114-.057v.075c0,.647,0,1.313,0,1.973l1.071.535.1.052q0-.034,0-.067C-305.305,142.669-305.305,142-305.3,141.338Zm-6.684-2.032.033.632c0,.017,0,.034,0,.049,0,.04.005.081.005.127v.415c0,.8,0,1.631,0,2.448a.725.725,0,0,1-.368.621c-.558.286-1.127.57-1.678.844l-.313.156a.687.687,0,0,1-.146.052l-.015,0-.607.178-.032-.632c0-.017,0-.034,0-.049,0-.04-.005-.081-.005-.127v-.413c0-.8,0-1.633,0-2.45a.725.725,0,0,1,.368-.621c.558-.286,1.127-.57,1.678-.844l.313-.156a.693.693,0,0,1,.146-.052l.015,0Zm-.962,3.492c0-.682,0-1.372,0-2.046-.388.193-.781.39-1.17.588,0,.682,0,1.372,0,2.046C-313.731,143.192-313.337,143-312.949,142.8Zm11.359-3.325.044,0h.467l.024.474c0,.014,0,.029,0,.043,0,.04.006.086.006.137v.437c0,.783,0,1.593,0,2.39a.744.744,0,0,1-.364.64c-.56.289-1.133.574-1.686.849l-.322.16a.587.587,0,0,1-.2.057l-.013,0-.582.1v-1.092c0-.833,0-1.7,0-2.538a.676.676,0,0,1,.35-.582c.6-.307,1.22-.613,1.816-.909l.224-.111A.523.523,0,0,1-301.59,139.472Zm-.459,3.325c0-.681,0-1.371,0-2.044-.388.193-.781.389-1.17.586,0,.679,0,1.349,0,2.047C-302.83,143.192-302.437,143-302.049,142.8Zm-9.811-.968h4.3v.5c0,.1,0,.2,0,.3,0,.228,0,.463-.005.7,0,.119.008.153.139.218.524.256,1.054.521,1.565.777.373.187.759.38,1.139.568a.712.712,0,0,1,.422.692c-.008.374-.008.768,0,1.173a.7.7,0,0,1-.415.676q-.551.273-1.1.549c-.524.263-1.067.534-1.6.8-.135.066-.149.1-.146.224.009.436.007.876.005,1.3q0,.268,0,.536v.7h-4.3v-.687q0-.27,0-.541c0-.43,0-.875.005-1.315,0-.113,0-.152-.148-.222-.513-.251-1.031-.51-1.532-.761-.379-.19-.77-.386-1.156-.576a.726.726,0,0,1-.43-.705c.009-.389.009-.777,0-1.153a.712.712,0,0,1,.423-.692c.338-.167.681-.339,1.013-.506.543-.272,1.1-.554,1.661-.823.161-.077.176-.122.168-.264-.013-.228-.01-.455-.007-.674,0-.1,0-.193,0-.292Zm3.3,1h-2.3c0,.141,0,.278.007.412a1.2,1.2,0,0,1-.733,1.219c-.551.265-1.108.545-1.647.815-.289.145-.586.294-.882.441,0,.292,0,.59,0,.889.347.172.694.346,1.031.515.5.25,1.014.508,1.523.756a1.164,1.164,0,0,1,.709,1.141c-.009.428-.007.867-.005,1.291q0,.116,0,.232h2.3q0-.122,0-.244c0-.42,0-.854,0-1.278a1.177,1.177,0,0,1,.707-1.142c.533-.26,1.073-.531,1.595-.792l.961-.48c0-.3,0-.6,0-.888-.338-.167-.677-.337-1.006-.5-.51-.255-1.036-.519-1.556-.773a1.163,1.163,0,0,1-.7-1.156C-308.56,143.135-308.559,142.984-308.56,142.829Zm-6.59,4.556h0a.638.638,0,0,1,.282.063c.516.251,1.019.5,1.552.77l1.174.587-.719.478-.039.027a1.071,1.071,0,0,1-.141.088l-.161.081c-.53.266-1.079.542-1.622.809a.81.81,0,0,1-.35.081.649.649,0,0,1-.284-.063c-.519-.25-1.029-.5-1.569-.77l-1.326-.656,1.182-.589.58-.288.216-.107c.287-.142.583-.29.879-.43A.829.829,0,0,1-315.15,147.385Zm.916,1.492c-.314-.157-.622-.31-.933-.462-.256.123-.514.251-.765.376l-.173.086c.319.157.63.31.943.462C-314.853,149.186-314.542,149.031-314.234,148.877Zm9.985-1.487a.674.674,0,0,1,.3.065c.511.248,1.025.506,1.523.756l.325.163a.886.886,0,0,1,.111.068l.035.024.721.475-.894.451-.233.117-.336.169c-.4.2-.811.407-1.22.606a.82.82,0,0,1-.352.08.674.674,0,0,1-.3-.066c-.511-.248-1.027-.507-1.526-.757l-.322-.161a.884.884,0,0,1-.111-.068l-.035-.024-.722-.475.893-.451.234-.118.339-.17c.4-.2.81-.406,1.218-.6A.821.821,0,0,1-304.249,147.39Zm.915,1.486c-.308-.154-.619-.308-.928-.46-.309.151-.621.307-.927.46.308.154.619.308.928.46C-303.951,149.185-303.64,149.029-303.334,148.876Zm-15.08.074,1.053.518.7.345.2.1c.287.142.584.288.876.44a.711.711,0,0,1,.376.595c.005.88,0,1.773,0,2.637v.35a.612.612,0,0,1-.026.171l0,.006-.132.566-.539-.217-.036-.014a1.412,1.412,0,0,1-.135-.056l-.272-.134c-.544-.268-1.106-.546-1.658-.824a.717.717,0,0,1-.4-.6c-.006-.837-.006-1.658-.006-2.528Zm2.205,2.2c-.231-.118-.466-.234-.695-.346l-.2-.1-.31-.153c0,.7,0,1.375,0,2.054.4.2.806.4,1.2.6C-316.2,152.531-316.2,151.839-316.208,151.154Zm15.163-2.149v1.621c0,.7,0,1.415,0,2.121a.729.729,0,0,1-.428.7c-.441.215-.888.438-1.321.655l-.536.268c-.045.022-.086.04-.129.058l-.062.026-.7.3v-1.624c0-.695,0-1.413,0-2.119a.729.729,0,0,1,.428-.7c.441-.214.887-.438,1.319-.654l.538-.269c.045-.022.086-.04.129-.058l.062-.026Zm-1,3.61c0-.667,0-1.338,0-1.989v-.06c-.384.192-.78.39-1.174.583,0,.666,0,1.337,0,1.986v.063C-302.833,153.006-302.438,152.808-302.043,152.615Zm-5.328-3.54.591.236.041.016a1.352,1.352,0,0,1,.136.057l.277.138c.536.267,1.09.544,1.633.823a.732.732,0,0,1,.385.61c.006.847.005,1.708,0,2.541v.413a.743.743,0,0,1-.013.132c0,.006,0,.012,0,.02l-.089.63-.591-.236-.041-.016a1.342,1.342,0,0,1-.136-.057l-.276-.138c-.536-.268-1.09-.544-1.633-.823a.732.732,0,0,1-.385-.61c-.006-.845-.005-1.7,0-2.533v-.42a.747.747,0,0,1,.013-.132c0-.006,0-.012,0-.02Zm2.063,2.079c-.388-.2-.782-.4-1.169-.589,0,.675,0,1.365,0,2.047.388.2.782.4,1.169.589C-305.3,152.525-305.3,151.835-305.308,151.153Zm-6.7-1.9.045.484c0,.01,0,.019,0,.029a1.235,1.235,0,0,1,.011.149q0,.58,0,1.159,0,.85,0,1.7a.667.667,0,0,1-.385.65c-.48.235-.967.479-1.438.714l-.531.266a.869.869,0,0,1-.1.043l-.039.014-.676.254v-2.663c0-.357,0-.727,0-1.092a.713.713,0,0,1,.36-.606c.574-.293,1.16-.585,1.726-.867l.3-.148a.541.541,0,0,1,.246-.056Zm-.94,3.36q0-.769,0-1.538v-.511c-.388.193-.782.39-1.171.588,0,.3,0,.6,0,.9V153.2C-313.733,153-313.338,152.808-312.945,152.614Z" transform="translate(365.729 470.839)" fill="rgba(0,0,0,0)"/>
  </g>
</svg>
