<svg xmlns="http://www.w3.org/2000/svg" width="40" height="40" viewBox="0 0 40 40">
  <g id="Group_20223" data-name="Group 20223" transform="translate(-36 -227)">
    <g id="Icon" transform="translate(31.021 225.145)">
      <g id="Group_14255" data-name="Group 14255" transform="translate(4.979 1.855)">
        <path id="Path" d="M20.015,0A20,20,0,1,0,40,20,20,20,0,0,0,20.015,0Z" transform="translate(0 0)" fill="#83909a" opacity="0.114"/>
      </g>
    </g>
    <g id="Group_14257" data-name="Group 14257" transform="translate(48.207 238.055)">
      <path id="Path_381" data-name="Path 381" d="M403.323,271.788a1.049,1.049,0,0,1-.849-.438v11.57a.192.192,0,0,0,.189.194h1.288a.192.192,0,0,0,.189-.194V271.392a1.048,1.048,0,0,1-.818.4" transform="translate(-395.893 -265.223)" fill="#83909a"/>
      <path id="Path_382" data-name="Path 382" d="M443.8,231.534a1.048,1.048,0,0,1-.833-.417v15.346a.192.192,0,0,0,.189.194h1.289a.192.192,0,0,0,.189-.194V231.117a1.048,1.048,0,0,1-.833.417" transform="translate(-432.584 -228.766)" fill="#83909a"/>
      <path id="Path_383" data-name="Path 383" d="M444.9,206.335l-.439-.225a.009.009,0,0,0-.013.01l.117.49a.009.009,0,0,1,0,.009l-.345.359a.009.009,0,0,0,.006.016l.49.037a.009.009,0,0,1,.007.005l.226.447a.009.009,0,0,0,.016,0l.186-.467a.009.009,0,0,1,.007-.006l.484-.083a.009.009,0,0,0,0-.016l-.375-.325a.01.01,0,0,1,0-.009l.073-.5a.009.009,0,0,0-.014-.009l-.417.266a.009.009,0,0,1-.009,0" transform="translate(-433.713 -206.068)" fill="#83909a"/>
      <path id="Path_384" data-name="Path 384" d="M404.4,250.266l-.439-.225a.009.009,0,0,0-.013.01l.117.49a.01.01,0,0,1,0,.009l-.344.359a.009.009,0,0,0,.006.016l.49.037a.009.009,0,0,1,.007,0l.226.447a.009.009,0,0,0,.016,0l.186-.467a.009.009,0,0,1,.007-.006l.485-.083a.009.009,0,0,0,0-.016l-.375-.325a.01.01,0,0,1,0-.009l.073-.5a.009.009,0,0,0-.014-.009l-.418.265a.009.009,0,0,1-.009,0" transform="translate(-397.021 -245.876)" fill="#83909a"/>
      <path id="Path_385" data-name="Path 385" d="M340.395,208.63a7.9,7.9,0,0,1,1.646.173.093.093,0,0,1,.072.1.092.092,0,0,1-.088.085,6.875,6.875,0,0,0,.178,13.739,6.644,6.644,0,0,0,5.571-3.061.089.089,0,0,1,.117-.031.094.094,0,0,1,.044.116,8.21,8.21,0,0,1-2.9,3.87,7.847,7.847,0,0,1-4.641,1.513,8.254,8.254,0,0,1,0-16.5" transform="translate(-332.355 -208.39)" fill="#83909a"/>
    </g>
  </g>
</svg>
