<svg id="Group_14277" data-name="Group 14277" xmlns="http://www.w3.org/2000/svg" width="24" height="24" viewBox="0 0 24 24">
  <g id="Group_14253" data-name="Group 14253">
    <path id="Path_33918" data-name="Path 33918" d="M0,0H24V24H0Z" fill="none"/>
    <path id="Path_33919" data-name="Path 33919" d="M10.325,4.317a1.724,1.724,0,0,1,3.35,0,1.724,1.724,0,0,0,2.573,1.066,1.725,1.725,0,0,1,2.37,2.37,1.724,1.724,0,0,0,1.065,2.572,1.724,1.724,0,0,1,0,3.35,1.724,1.724,0,0,0-1.066,2.573,1.725,1.725,0,0,1-2.37,2.37,1.724,1.724,0,0,0-2.572,1.065,1.724,1.724,0,0,1-3.35,0,1.724,1.724,0,0,0-2.573-1.066,1.725,1.725,0,0,1-2.37-2.37,1.724,1.724,0,0,0-1.065-2.572,1.724,1.724,0,0,1,0-3.35A1.724,1.724,0,0,0,5.383,7.752a1.725,1.725,0,0,1,2.37-2.37,1.723,1.723,0,0,0,2.572-1.065Z" fill="none" stroke="#b5babe" stroke-linecap="round" stroke-linejoin="round" stroke-width="2"/>
    <circle id="Ellipse_17739" data-name="Ellipse 17739" cx="3" cy="3" r="3" transform="translate(9 9)" fill="none" stroke="#b5babe" stroke-linecap="round" stroke-linejoin="round" stroke-width="2"/>
  </g>
</svg>
