<svg id="Group_14279" data-name="Group 14279" xmlns="http://www.w3.org/2000/svg" width="24" height="24" viewBox="0 0 24 24">
  <g id="Group_14252" data-name="Group 14252">
    <path id="Path_33915" data-name="Path 33915" d="M0,0H24V24H0Z" fill="none"/>
    <g id="Group_14275" data-name="Group 14275" transform="translate(3.307 3.31)">
      <path id="Path_33929" data-name="Path 33929" d="M106,243.242V232.687c.011-.049.026-.1.032-.146a3.423,3.423,0,0,1,3.33-2.938q5.321-.012,10.642,0a3.392,3.392,0,0,1,3.151,2.178,4.727,4.727,0,0,1,.213,2.024.653.653,0,0,1-.715.581.674.674,0,0,1-.628-.66c-.006-.22,0-.441,0-.662a2.042,2.042,0,0,0-2.112-2.106h-5.364c-1.709,0-3.417-.006-5.126,0a2.034,2.034,0,0,0-1.887,2.848,1.97,1.97,0,0,0,1.943,1.222q5.253,0,10.506,0a3.389,3.389,0,0,1,3.395,3.369q.015,2.6,0,5.21a3.382,3.382,0,0,1-2.478,3.236c-.189.053-.383.087-.575.13H109.7a.547.547,0,0,0-.094-.029,4.073,4.073,0,0,1-3.455-2.96C106.083,243.743,106.049,243.491,106,243.242Zm1.359-7.528v.121q0,3.555,0,7.109a2.393,2.393,0,0,0,.049.471,2.71,2.71,0,0,0,2.7,2.2q4.9,0,9.792,0a2.043,2.043,0,0,0,2.123-2.129q0-2.486,0-4.971a2.044,2.044,0,0,0-2.138-2.131q-5.244,0-10.488,0a4.166,4.166,0,0,1-.789-.093A3.249,3.249,0,0,1,107.358,235.715Z" transform="translate(-106 -229.597)" fill="#b5babe" stroke="#b5babe" stroke-width="0.2"/>
      <path id="Path_33931" data-name="Path 33931" d="M171.928,290.892H166.7a.68.68,0,1,1-.124-1.354.991.991,0,0,1,.1,0h10.5a.678.678,0,1,1,.039,1.356c-.792.007-1.583,0-2.375,0Z" transform="translate(-163.235 -286.816)" fill="#b5babe" stroke="#b5babe" stroke-width="0.2"/>
      <path id="Path_33932" data-name="Path 33932" d="M393.764,463.308a.85.85,0,0,1-.835.849.848.848,0,1,1,0-1.7A.851.851,0,0,1,393.764,463.308Z" transform="translate(-379.099 -451.902)" fill="#b5babe" stroke="#b5babe" stroke-width="0.2"/>
    </g>
  </g>
</svg>
